<svg width="1026" height="294" viewBox="0 0 1026 294" fill="none" xmlns="http://www.w3.org/2000/svg" role="img" aria-labelledby="title desc"><title id="title">byteD-x GitHub contribution snake</title><desc id="desc">A GitHub contribution snake that only targets active cells, clears them, and grows on each bite.</desc><defs><path id="dark-guide-path" d="M 45.00 101.00 L 45.00 173.00 L 63.00 173.00 L 63.00 137.00 L 99.00 137.00 L 99.00 101.00 L 99.00 227.00 L 117.00 227.00 L 117.00 191.00 L 153.00 191.00 L 153.00 155.00 L 189.00 155.00 L 189.00 119.00 L 207.00 119.00 L 207.00 101.00 L 207.00 227.00 L 153.00 227.00 L 171.00 227.00 L 171.00 191.00 L 207.00 191.00 L 207.00 173.00 L 207.00 191.00 L 117.00 191.00 L 117.00 227.00 L 45.00 227.00 L 63.00 227.00 L 63.00 191.00 L 99.00 191.00 L 99.00 155.00 L 135.00 155.00 L 135.00 119.00 L 153.00 119.00 L 153.00 101.00" pathLength="1000" /><linearGradient id="dark-snake-body" x1="-10" y1="-10" x2="10" y2="10" gradientUnits="userSpaceOnUse"><stop stop-color="#3FB950" /><stop offset="1" stop-color="#2EA043" /></linearGradient><linearGradient id="dark-snake-head" x1="-10" y1="-10" x2="10" y2="10" gradientUnits="userSpaceOnUse"><stop stop-color="#56D364" /><stop offset="1" stop-color="#2EA043" /></linearGradient><filter id="dark-snake-shadow" x="-50%" y="-50%" width="200%" height="200%"><feDropShadow dx="0" dy="0" stdDeviation="0.7" flood-color="#238636" flood-opacity="0.18" /></filter><clipPath id="dark-snake-body-clip" clipPathUnits="userSpaceOnUse"><rect x="38.0" y="112.0" width="14" height="14" /><rect x="38.0" y="130.0" width="14" height="14" /><rect x="38.0" y="148.0" width="14" height="14" /><rect x="38.0" y="166.0" width="14" height="14" /><rect x="38.0" y="184.0" width="14" height="14" /><rect x="38.0" y="202.0" width="14" height="14" /><rect x="38.0" y="220.0" width="14" height="14" /><rect x="56.0" y="112.0" width="14" height="14" /><rect x="56.0" y="130.0" width="14" height="14" /><rect x="56.0" y="148.0" width="14" height="14" /><rect x="56.0" y="166.0" width="14" height="14" /><rect x="56.0" y="184.0" width="14" height="14" /><rect x="56.0" y="202.0" width="14" height="14" /><rect x="56.0" y="220.0" width="14" height="14" /><rect x="74.0" y="112.0" width="14" height="14" /><rect x="74.0" y="130.0" width="14" height="14" /><rect x="74.0" y="148.0" width="14" height="14" /><rect x="74.0" y="166.0" width="14" height="14" /><rect x="74.0" y="184.0" width="14" height="14" /><rect x="74.0" y="202.0" width="14" height="14" /><rect x="74.0" y="220.0" width="14" height="14" /><rect x="92.0" y="112.0" width="14" height="14" /><rect x="92.0" y="130.0" width="14" height="14" /><rect x="92.0" y="148.0" width="14" height="14" /><rect x="92.0" y="166.0" width="14" height="14" /><rect x="92.0" y="184.0" width="14" height="14" /><rect x="92.0" y="202.0" width="14" height="14" /><rect x="92.0" y="220.0" width="14" height="14" /><rect x="110.0" y="112.0" width="14" height="14" /><rect x="110.0" y="130.0" width="14" height="14" /><rect x="110.0" y="148.0" width="14" height="14" /><rect x="110.0" y="166.0" width="14" height="14" /><rect x="110.0" y="184.0" width="14" height="14" /><rect x="110.0" y="202.0" width="14" height="14" /><rect x="110.0" y="220.0" width="14" height="14" /><rect x="128.0" y="112.0" width="14" height="14" /><rect x="128.0" y="130.0" width="14" height="14" /><rect x="128.0" y="148.0" width="14" height="14" /><rect x="128.0" y="166.0" width="14" height="14" /><rect x="128.0" y="184.0" width="14" height="14" /><rect x="128.0" y="202.0" width="14" height="14" /><rect x="128.0" y="220.0" width="14" height="14" /><rect x="146.0" y="112.0" width="14" height="14" /><rect x="146.0" y="130.0" width="14" height="14" /><rect x="146.0" y="148.0" width="14" height="14" /><rect x="146.0" y="166.0" width="14" height="14" /><rect x="146.0" y="184.0" width="14" height="14" /><rect x="146.0" y="202.0" width="14" height="14" /><rect x="146.0" y="220.0" width="14" height="14" /><rect x="164.0" y="112.0" width="14" height="14" /><rect x="164.0" y="130.0" width="14" height="14" /><rect x="164.0" y="148.0" width="14" height="14" /><rect x="164.0" y="166.0" width="14" height="14" /><rect x="164.0" y="184.0" width="14" height="14" /><rect x="164.0" y="202.0" width="14" height="14" /><rect x="164.0" y="220.0" width="14" height="14" /><rect x="182.0" y="112.0" width="14" height="14" /><rect x="182.0" y="130.0" width="14" height="14" /><rect x="182.0" y="148.0" width="14" height="14" /><rect x="182.0" y="166.0" width="14" height="14" /><rect x="182.0" y="184.0" width="14" height="14" /><rect x="182.0" y="202.0" width="14" height="14" /><rect x="182.0" y="220.0" width="14" height="14" /><rect x="200.0" y="112.0" width="14" height="14" /><rect x="200.0" y="130.0" width="14" height="14" /><rect x="200.0" y="148.0" width="14" height="14" /><rect x="200.0" y="166.0" width="14" height="14" /><rect x="200.0" y="184.0" width="14" height="14" /><rect x="200.0" y="202.0" width="14" height="14" /><rect x="200.0" y="220.0" width="14" height="14" /></clipPath><clipPath id="dark-grid-clip"><rect x="39.0" y="113.0" width="174.0" height="120.0" rx="6" /></clipPath></defs><style>.grid-static,.snake-static{display:none;}@media (prefers-reduced-motion: reduce){.grid-animated,.snake-animated{display:none;}.grid-static,.snake-static{display:inline;}}</style><rect width="1026" height="294" rx="18" fill="#0D1117" /><rect x="1" y="1" width="1024" height="292" rx="17" stroke="#30363D" /><rect x="28" y="24" width="970" height="222" rx="14" fill="#0D1117" stroke="#30363D" /><text x="38" y="46" fill="#C9D1D9" font-family="Segoe UI, Microsoft YaHei, sans-serif" font-size="20" font-weight="700">GitHub contribution snake</text><text x="38" y="68" fill="#8B949E" font-family="Segoe UI, Microsoft YaHei, sans-serif" font-size="12">byteD-x ˇ¤ 123 contributions</text><text x="38" y="86" fill="#7D8590" font-family="Segoe UI, Microsoft YaHei, sans-serif" font-size="10">2025-01-05 to 2025-03-15</text><text x="988" y="46" text-anchor="end" fill="#7D8590" font-family="Segoe UI, Microsoft YaHei, sans-serif" font-size="10">active cells 24</text><text x="38.0" y="100" fill="#7D8590" font-family="Segoe UI, Microsoft YaHei, sans-serif" font-size="10">Jan</text><text x="92.0" y="100" fill="#7D8590" font-family="Segoe UI, Microsoft YaHei, sans-serif" font-size="10">Feb</text><text x="164.0" y="100" fill="#7D8590" font-family="Segoe UI, Microsoft YaHei, sans-serif" font-size="10">Mar</text><text x="10" y="138.0" fill="#7D8590" font-family="Segoe UI, Microsoft YaHei, sans-serif" font-size="10">Mon</text><text x="10" y="174.0" fill="#7D8590" font-family="Segoe UI, Microsoft YaHei, sans-serif" font-size="10">Wed</text><text x="10" y="210.0" fill="#7D8590" font-family="Segoe UI, Microsoft YaHei, sans-serif" font-size="10">Fri</text><g clip-path="url(#dark-grid-clip)"><rect class="contribution-cell active-cell grid-animated" x="38.0" y="112.0" width="14" height="14" fill="#006D32" stroke="#006D32" stroke-width="0.9"><animate attributeName="fill" values="#006D32;#006D32;#161B22;#161B22;#006D32" keyTimes="0;0.01389;0.02989;0.999;1" dur="16.0s" repeatCount="indefinite" /><animate attributeName="stroke" values="#006D32;#006D32;#21262D;#21262D;#006D32" keyTimes="0;0.01389;0.02989;0.999;1" dur="16.0s" repeatCount="indefinite" /></rect><rect class="contribution-cell grid-animated" x="38.0" y="130.0" width="14" height="14" fill="#161B22" stroke="#21262D" stroke-width="0.9" /><rect class="contribution-cell grid-animated" x="38.0" y="148.0" width="14" height="14" fill="#161B22" stroke="#21262D" stroke-width="0.9" /><rect class="contribution-cell active-cell grid-animated" x="38.0" y="166.0" width="14" height="14" fill="#006D32" stroke="#006D32" stroke-width="0.9"><animate attributeName="fill" values="#006D32;#006D32;#161B22;#161B22;#006D32" keyTimes="0;0.05556;0.07156;0.999;1" dur="16.0s" repeatCount="indefinite" /><animate attributeName="stroke" values="#006D32;#006D32;#21262D;#21262D;#006D32" keyTimes="0;0.05556;0.07156;0.999;1" dur="16.0s" repeatCount="indefinite" /></rect><rect class="contribution-cell grid-animated" x="38.0" y="184.0" width="14" height="14" fill="#161B22" stroke="#21262D" stroke-width="0.9" /><rect class="contribution-cell grid-animated" x="38.0" y="202.0" width="14" height="14" fill="#161B22" stroke="#21262D" stroke-width="0.9" /><rect class="contribution-cell active-cell grid-animated" x="38.0" y="220.0" width="14" height="14" fill="#006D32" stroke="#006D32" stroke-width="0.9"><animate attributeName="fill" values="#006D32;#006D32;#161B22;#161B22;#006D32" keyTimes="0;0.81944;0.83544;0.999;1" dur="16.0s" repeatCount="indefinite" /><animate attributeName="stroke" values="#006D32;#006D32;#21262D;#21262D;#006D32" keyTimes="0;0.81944;0.83544;0.999;1" dur="16.0s" repeatCount="indefinite" /></rect><rect class="contribution-cell grid-animated" x="56.0" y="112.0" width="14" height="14" fill="#161B22" stroke="#21262D" stroke-width="0.9" /><rect class="contribution-cell grid-animated" x="56.0" y="130.0" width="14" height="14" fill="#161B22" stroke="#21262D" stroke-width="0.9" /><rect class="contribution-cell active-cell grid-animated" x="56.0" y="148.0" width="14" height="14" fill="#006D32" stroke="#006D32" stroke-width="0.9"><animate attributeName="fill" values="#006D32;#006D32;#161B22;#161B22;#006D32" keyTimes="0;0.08333;0.09933;0.999;1" dur="16.0s" repeatCount="indefinite" /><animate attributeName="stroke" values="#006D32;#006D32;#21262D;#21262D;#006D32" keyTimes="0;0.08333;0.09933;0.999;1" dur="16.0s" repeatCount="indefinite" /></rect><rect class="contribution-cell grid-animated" x="56.0" y="166.0" width="14" height="14" fill="#161B22" stroke="#21262D" stroke-width="0.9" /><rect class="contribution-cell grid-animated" x="56.0" y="184.0" width="14" height="14" fill="#161B22" stroke="#21262D" stroke-width="0.9" /><rect class="contribution-cell active-cell grid-animated" x="56.0" y="202.0" width="14" height="14" fill="#006D32" stroke="#006D32" stroke-width="0.9"><animate attributeName="fill" values="#006D32;#006D32;#161B22;#161B22;#006D32" keyTimes="0;0.84722;0.86322;0.999;1" dur="16.0s" repeatCount="indefinite" /><animate attributeName="stroke" values="#006D32;#006D32;#21262D;#21262D;#006D32" keyTimes="0;0.84722;0.86322;0.999;1" dur="16.0s" repeatCount="indefinite" /></rect><rect class="contribution-cell grid-animated" x="56.0" y="220.0" width="14" height="14" fill="#161B22" stroke="#21262D" stroke-width="0.9" /><rect class="contribution-cell grid-animated" x="74.0" y="112.0" width="14" height="14" fill="#161B22" stroke="#21262D" stroke-width="0.9" /><rect class="contribution-cell active-cell grid-animated" x="74.0" y="130.0" width="14" height="14" fill="#006D32" stroke="#006D32" stroke-width="0.9"><animate attributeName="fill" values="#006D32;#006D32;#161B22;#161B22;#006D32" keyTimes="0;0.11111;0.12711;0.999;1" dur="16.0s" repeatCount="indefinite" /><animate attributeName="stroke" values="#006D32;#006D32;#21262D;#21262D;#006D32" keyTimes="0;0.11111;0.12711;0.999;1" dur="16.0s" repeatCount="indefinite" /></rect><rect class="contribution-cell grid-animated" x="74.0" y="148.0" width="14" height="14" fill="#161B22" stroke="#21262D" stroke-width="0.9" /><rect class="contribution-cell grid-animated" x="74.0" y="166.0" width="14" height="14" fill="#161B22" stroke="#21262D" stroke-width="0.9" /><rect class="contribution-cell active-cell grid-animated" x="74.0" y="184.0" width="14" height="14" fill="#006D32" stroke="#006D32" stroke-width="0.9"><animate attributeName="fill" values="#006D32;#006D32;#161B22;#161B22;#006D32" keyTimes="0;0.87500;0.89100;0.999;1" dur="16.0s" repeatCount="indefinite" /><animate attributeName="stroke" values="#006D32;#006D32;#21262D;#21262D;#006D32" keyTimes="0;0.87500;0.89100;0.999;1" dur="16.0s" repeatCount="indefinite" /></rect><rect class="contribution-cell grid-animated" x="74.0" y="202.0" width="14" height="14" fill="#161B22" stroke="#21262D" stroke-width="0.9" /><rect class="contribution-cell grid-animated" x="74.0" y="220.0" width="14" height="14" fill="#161B22" stroke="#21262D" stroke-width="0.9" /><rect class="contribution-cell active-cell grid-animated" x="92.0" y="112.0" width="14" height="14" fill="#006D32" stroke="#006D32" stroke-width="0.9"><animate attributeName="fill" values="#006D32;#006D32;#161B22;#161B22;#006D32" keyTimes="0;0.13889;0.15489;0.999;1" dur="16.0s" repeatCount="indefinite" /><animate attributeName="stroke" values="#006D32;#006D32;#21262D;#21262D;#006D32" keyTimes="0;0.13889;0.15489;0.999;1" dur="16.0s" repeatCount="indefinite" /></rect><rect class="contribution-cell grid-animated" x="92.0" y="130.0" width="14" height="14" fill="#161B22" stroke="#21262D" stroke-width="0.9" /><rect class="contribution-cell grid-animated" x="92.0" y="148.0" width="14" height="14" fill="#161B22" stroke="#21262D" stroke-width="0.9" /><rect class="contribution-cell active-cell grid-animated" x="92.0" y="166.0" width="14" height="14" fill="#006D32" stroke="#006D32" stroke-width="0.9"><animate attributeName="fill" values="#006D32;#006D32;#161B22;#161B22;#006D32" keyTimes="0;0.20833;0.22433;0.999;1" dur="16.0s" repeatCount="indefinite" /><animate attributeName="stroke" values="#006D32;#006D32;#21262D;#21262D;#006D32" keyTimes="0;0.20833;0.22433;0.999;1" dur="16.0s" repeatCount="indefinite" /></rect><rect class="contribution-cell grid-animated" x="92.0" y="184.0" width="14" height="14" fill="#161B22" stroke="#21262D" stroke-width="0.9" /><rect class="contribution-cell grid-animated" x="92.0" y="202.0" width="14" height="14" fill="#161B22" stroke="#21262D" stroke-width="0.9" /><rect class="contribution-cell active-cell grid-animated" x="92.0" y="220.0" width="14" height="14" fill="#006D32" stroke="#006D32" stroke-width="0.9"><animate attributeName="fill" values="#006D32;#006D32;#161B22;#161B22;#006D32" keyTimes="0;0.25000;0.26600;0.999;1" dur="16.0s" repeatCount="indefinite" /><animate attributeName="stroke" values="#006D32;#006D32;#21262D;#21262D;#006D32" keyTimes="0;0.25000;0.26600;0.999;1" dur="16.0s" repeatCount="indefinite" /></rect><rect class="contribution-cell grid-animated" x="110.0" y="112.0" width="14" height="14" fill="#161B22" stroke="#21262D" stroke-width="0.9" /><rect class="contribution-cell grid-animated" x="110.0" y="130.0" width="14" height="14" fill="#161B22" stroke="#21262D" stroke-width="0.9" /><rect class="contribution-cell active-cell grid-animated" x="110.0" y="148.0" width="14" height="14" fill="#006D32" stroke="#006D32" stroke-width="0.9"><animate attributeName="fill" values="#006D32;#006D32;#161B22;#161B22;#006D32" keyTimes="0;0.93056;0.94656;0.999;1" dur="16.0s" repeatCount="indefinite" /><animate attributeName="stroke" values="#006D32;#006D32;#21262D;#21262D;#006D32" keyTimes="0;0.93056;0.94656;0.999;1" dur="16.0s" repeatCount="indefinite" /></rect><rect class="contribution-cell grid-animated" x="110.0" y="166.0" width="14" height="14" fill="#161B22" stroke="#21262D" stroke-width="0.9" /><rect class="contribution-cell grid-animated" x="110.0" y="184.0" width="14" height="14" fill="#161B22" stroke="#21262D" stroke-width="0.9" /><rect class="contribution-cell active-cell grid-animated" x="110.0" y="202.0" width="14" height="14" fill="#006D32" stroke="#006D32" stroke-width="0.9"><animate attributeName="fill" values="#006D32;#006D32;#161B22;#161B22;#006D32" keyTimes="0;0.27778;0.29378;0.999;1" dur="16.0s" repeatCount="indefinite" /><animate attributeName="stroke" values="#006D32;#006D32;#21262D;#21262D;#006D32" keyTimes="0;0.27778;0.29378;0.999;1" dur="16.0s" repeatCount="indefinite" /></rect><rect class="contribution-cell grid-animated" x="110.0" y="220.0" width="14" height="14" fill="#161B22" stroke="#21262D" stroke-width="0.9" /><rect class="contribution-cell grid-animated" x="128.0" y="112.0" width="14" height="14" fill="#161B22" stroke="#21262D" stroke-width="0.9" /><rect class="contribution-cell active-cell grid-animated" x="128.0" y="130.0" width="14" height="14" fill="#006D32" stroke="#006D32" stroke-width="0.9"><animate attributeName="fill" values="#006D32;#006D32;#161B22;#161B22;#006D32" keyTimes="0;0.95833;0.97433;0.999;1" dur="16.0s" repeatCount="indefinite" /><animate attributeName="stroke" values="#006D32;#006D32;#21262D;#21262D;#006D32" keyTimes="0;0.95833;0.97433;0.999;1" dur="16.0s" repeatCount="indefinite" /></rect><rect class="contribution-cell grid-animated" x="128.0" y="148.0" width="14" height="14" fill="#161B22" stroke="#21262D" stroke-width="0.9" /><rect class="contribution-cell grid-animated" x="128.0" y="166.0" width="14" height="14" fill="#161B22" stroke="#21262D" stroke-width="0.9" /><rect class="contribution-cell active-cell grid-animated" x="128.0" y="184.0" width="14" height="14" fill="#006D32" stroke="#006D32" stroke-width="0.9"><animate attributeName="fill" values="#006D32;#006D32;#161B22;#161B22;#006D32" keyTimes="0;0.30556;0.32156;0.999;1" dur="16.0s" repeatCount="indefinite" /><animate attributeName="stroke" values="#006D32;#006D32;#21262D;#21262D;#006D32" keyTimes="0;0.30556;0.32156;0.999;1" dur="16.0s" repeatCount="indefinite" /></rect><rect class="contribution-cell grid-animated" x="128.0" y="202.0" width="14" height="14" fill="#161B22" stroke="#21262D" stroke-width="0.9" /><rect class="contribution-cell grid-animated" x="128.0" y="220.0" width="14" height="14" fill="#161B22" stroke="#21262D" stroke-width="0.9" /><rect class="contribution-cell active-cell grid-animated" x="146.0" y="112.0" width="14" height="14" fill="#006D32" stroke="#006D32" stroke-width="0.9"><animate attributeName="fill" values="#006D32;#006D32;#161B22;#161B22;#006D32" keyTimes="0;0.98611;0.99900;0.999;1" dur="16.0s" repeatCount="indefinite" /><animate attributeName="stroke" values="#006D32;#006D32;#21262D;#21262D;#006D32" keyTimes="0;0.98611;0.99900;0.999;1" dur="16.0s" repeatCount="indefinite" /></rect><rect class="contribution-cell grid-animated" x="146.0" y="130.0" width="14" height="14" fill="#161B22" stroke="#21262D" stroke-width="0.9" /><rect class="contribution-cell grid-animated" x="146.0" y="148.0" width="14" height="14" fill="#161B22" stroke="#21262D" stroke-width="0.9" /><rect class="contribution-cell active-cell grid-animated" x="146.0" y="166.0" width="14" height="14" fill="#006D32" stroke="#006D32" stroke-width="0.9"><animate attributeName="fill" values="#006D32;#006D32;#161B22;#161B22;#006D32" keyTimes="0;0.33333;0.34933;0.999;1" dur="16.0s" repeatCount="indefinite" /><animate attributeName="stroke" values="#006D32;#006D32;#21262D;#21262D;#006D32" keyTimes="0;0.33333;0.34933;0.999;1" dur="16.0s" repeatCount="indefinite" /></rect><rect class="contribution-cell grid-animated" x="146.0" y="184.0" width="14" height="14" fill="#161B22" stroke="#21262D" stroke-width="0.9" /><rect class="contribution-cell grid-animated" x="146.0" y="202.0" width="14" height="14" fill="#161B22" stroke="#21262D" stroke-width="0.9" /><rect class="contribution-cell active-cell grid-animated" x="146.0" y="220.0" width="14" height="14" fill="#006D32" stroke="#006D32" stroke-width="0.9"><animate attributeName="fill" values="#006D32;#006D32;#161B22;#161B22;#006D32" keyTimes="0;0.56944;0.58544;0.999;1" dur="16.0s" repeatCount="indefinite" /><animate attributeName="stroke" values="#006D32;#006D32;#21262D;#21262D;#006D32" keyTimes="0;0.56944;0.58544;0.999;1" dur="16.0s" repeatCount="indefinite" /></rect><rect class="contribution-cell grid-animated" x="164.0" y="112.0" width="14" height="14" fill="#161B22" stroke="#21262D" stroke-width="0.9" /><rect class="contribution-cell grid-animated" x="164.0" y="130.0" width="14" height="14" fill="#161B22" stroke="#21262D" stroke-width="0.9" /><rect class="contribution-cell active-cell grid-animated" x="164.0" y="148.0" width="14" height="14" fill="#006D32" stroke="#006D32" stroke-width="0.9"><animate attributeName="fill" values="#006D32;#006D32;#161B22;#161B22;#006D32" keyTimes="0;0.36111;0.37711;0.999;1" dur="16.0s" repeatCount="indefinite" /><animate attributeName="stroke" values="#006D32;#006D32;#21262D;#21262D;#006D32" keyTimes="0;0.36111;0.37711;0.999;1" dur="16.0s" repeatCount="indefinite" /></rect><rect class="contribution-cell grid-animated" x="164.0" y="166.0" width="14" height="14" fill="#161B22" stroke="#21262D" stroke-width="0.9" /><rect class="contribution-cell grid-animated" x="164.0" y="184.0" width="14" height="14" fill="#161B22" stroke="#21262D" stroke-width="0.9" /><rect class="contribution-cell active-cell grid-animated" x="164.0" y="202.0" width="14" height="14" fill="#006D32" stroke="#006D32" stroke-width="0.9"><animate attributeName="fill" values="#006D32;#006D32;#161B22;#161B22;#006D32" keyTimes="0;0.59722;0.61322;0.999;1" dur="16.0s" repeatCount="indefinite" /><animate attributeName="stroke" values="#006D32;#006D32;#21262D;#21262D;#006D32" keyTimes="0;0.59722;0.61322;0.999;1" dur="16.0s" repeatCount="indefinite" /></rect><rect class="contribution-cell grid-animated" x="164.0" y="220.0" width="14" height="14" fill="#161B22" stroke="#21262D" stroke-width="0.9" /><rect class="contribution-cell grid-animated" x="182.0" y="112.0" width="14" height="14" fill="#161B22" stroke="#21262D" stroke-width="0.9" /><rect class="contribution-cell active-cell grid-animated" x="182.0" y="130.0" width="14" height="14" fill="#006D32" stroke="#006D32" stroke-width="0.9"><animate attributeName="fill" values="#006D32;#006D32;#161B22;#161B22;#006D32" keyTimes="0;0.38889;0.40489;0.999;1" dur="16.0s" repeatCount="indefinite" /><animate attributeName="stroke" values="#006D32;#006D32;#21262D;#21262D;#006D32" keyTimes="0;0.38889;0.40489;0.999;1" dur="16.0s" repeatCount="indefinite" /></rect><rect class="contribution-cell grid-animated" x="182.0" y="148.0" width="14" height="14" fill="#161B22" stroke="#21262D" stroke-width="0.9" /><rect class="contribution-cell grid-animated" x="182.0" y="166.0" width="14" height="14" fill="#161B22" stroke="#21262D" stroke-width="0.9" /><rect class="contribution-cell active-cell grid-animated" x="182.0" y="184.0" width="14" height="14" fill="#006D32" stroke="#006D32" stroke-width="0.9"><animate attributeName="fill" values="#006D32;#006D32;#161B22;#161B22;#006D32" keyTimes="0;0.62500;0.64100;0.999;1" dur="16.0s" repeatCount="indefinite" /><animate attributeName="stroke" values="#006D32;#006D32;#21262D;#21262D;#006D32" keyTimes="0;0.62500;0.64100;0.999;1" dur="16.0s" repeatCount="indefinite" /></rect><rect class="contribution-cell grid-animated" x="182.0" y="202.0" width="14" height="14" fill="#161B22" stroke="#21262D" stroke-width="0.9" /><rect class="contribution-cell grid-animated" x="182.0" y="220.0" width="14" height="14" fill="#161B22" stroke="#21262D" stroke-width="0.9" /><rect class="contribution-cell active-cell grid-animated" x="200.0" y="112.0" width="14" height="14" fill="#006D32" stroke="#006D32" stroke-width="0.9"><animate attributeName="fill" values="#006D32;#006D32;#161B22;#161B22;#006D32" keyTimes="0;0.41667;0.43267;0.999;1" dur="16.0s" repeatCount="indefinite" /><animate attributeName="stroke" values="#006D32;#006D32;#21262D;#21262D;#006D32" keyTimes="0;0.41667;0.43267;0.999;1" dur="16.0s" repeatCount="indefinite" /></rect><rect class="contribution-cell grid-animated" x="200.0" y="130.0" width="14" height="14" fill="#161B22" stroke="#21262D" stroke-width="0.9" /><rect class="contribution-cell grid-animated" x="200.0" y="148.0" width="14" height="14" fill="#161B22" stroke="#21262D" stroke-width="0.9" /><rect class="contribution-cell active-cell grid-animated" x="200.0" y="166.0" width="14" height="14" fill="#006D32" stroke="#006D32" stroke-width="0.9"><animate attributeName="fill" values="#006D32;#006D32;#161B22;#161B22;#006D32" keyTimes="0;0.48611;0.50211;0.999;1" dur="16.0s" repeatCount="indefinite" /><animate attributeName="stroke" values="#006D32;#006D32;#21262D;#21262D;#006D32" keyTimes="0;0.48611;0.50211;0.999;1" dur="16.0s" repeatCount="indefinite" /></rect><rect class="contribution-cell grid-animated" x="200.0" y="184.0" width="14" height="14" fill="#161B22" stroke="#21262D" stroke-width="0.9" /><rect class="contribution-cell grid-animated" x="200.0" y="202.0" width="14" height="14" fill="#161B22" stroke="#21262D" stroke-width="0.9" /><rect class="contribution-cell active-cell grid-animated" x="200.0" y="220.0" width="14" height="14" fill="#006D32" stroke="#006D32" stroke-width="0.9"><animate attributeName="fill" values="#006D32;#006D32;#161B22;#161B22;#006D32" keyTimes="0;0.52778;0.54378;0.999;1" dur="16.0s" repeatCount="indefinite" /><animate attributeName="stroke" values="#006D32;#006D32;#21262D;#21262D;#006D32" keyTimes="0;0.52778;0.54378;0.999;1" dur="16.0s" repeatCount="indefinite" /></rect><g class="grid-static"><rect x="38.0" y="112.0" width="14" height="14" fill="#161B22" stroke="#21262D" stroke-width="0.9" /><rect x="38.0" y="130.0" width="14" height="14" fill="#161B22" stroke="#21262D" stroke-width="0.9" /><rect x="38.0" y="148.0" width="14" height="14" fill="#161B22" stroke="#21262D" stroke-width="0.9" /><rect x="38.0" y="166.0" width="14" height="14" fill="#161B22" stroke="#21262D" stroke-width="0.9" /><rect x="38.0" y="184.0" width="14" height="14" fill="#161B22" stroke="#21262D" stroke-width="0.9" /><rect x="38.0" y="202.0" width="14" height="14" fill="#161B22" stroke="#21262D" stroke-width="0.9" /><rect x="38.0" y="220.0" width="14" height="14" fill="#161B22" stroke="#21262D" stroke-width="0.9" /><rect x="56.0" y="112.0" width="14" height="14" fill="#161B22" stroke="#21262D" stroke-width="0.9" /><rect x="56.0" y="130.0" width="14" height="14" fill="#161B22" stroke="#21262D" stroke-width="0.9" /><rect x="56.0" y="148.0" width="14" height="14" fill="#161B22" stroke="#21262D" stroke-width="0.9" /><rect x="56.0" y="166.0" width="14" height="14" fill="#161B22" stroke="#21262D" stroke-width="0.9" /><rect x="56.0" y="184.0" width="14" height="14" fill="#161B22" stroke="#21262D" stroke-width="0.9" /><rect x="56.0" y="202.0" width="14" height="14" fill="#161B22" stroke="#21262D" stroke-width="0.9" /><rect x="56.0" y="220.0" width="14" height="14" fill="#161B22" stroke="#21262D" stroke-width="0.9" /><rect x="74.0" y="112.0" width="14" height="14" fill="#161B22" stroke="#21262D" stroke-width="0.9" /><rect x="74.0" y="130.0" width="14" height="14" fill="#161B22" stroke="#21262D" stroke-width="0.9" /><rect x="74.0" y="148.0" width="14" height="14" fill="#161B22" stroke="#21262D" stroke-width="0.9" /><rect x="74.0" y="166.0" width="14" height="14" fill="#161B22" stroke="#21262D" stroke-width="0.9" /><rect x="74.0" y="184.0" width="14" height="14" fill="#161B22" stroke="#21262D" stroke-width="0.9" /><rect x="74.0" y="202.0" width="14" height="14" fill="#161B22" stroke="#21262D" stroke-width="0.9" /><rect x="74.0" y="220.0" width="14" height="14" fill="#161B22" stroke="#21262D" stroke-width="0.9" /><rect x="92.0" y="112.0" width="14" height="14" fill="#161B22" stroke="#21262D" stroke-width="0.9" /><rect x="92.0" y="130.0" width="14" height="14" fill="#161B22" stroke="#21262D" stroke-width="0.9" /><rect x="92.0" y="148.0" width="14" height="14" fill="#161B22" stroke="#21262D" stroke-width="0.9" /><rect x="92.0" y="166.0" width="14" height="14" fill="#161B22" stroke="#21262D" stroke-width="0.9" /><rect x="92.0" y="184.0" width="14" height="14" fill="#161B22" stroke="#21262D" stroke-width="0.9" /><rect x="92.0" y="202.0" width="14" height="14" fill="#161B22" stroke="#21262D" stroke-width="0.9" /><rect x="92.0" y="220.0" width="14" height="14" fill="#161B22" stroke="#21262D" stroke-width="0.9" /><rect x="110.0" y="112.0" width="14" height="14" fill="#161B22" stroke="#21262D" stroke-width="0.9" /><rect x="110.0" y="130.0" width="14" height="14" fill="#161B22" stroke="#21262D" stroke-width="0.9" /><rect x="110.0" y="148.0" width="14" height="14" fill="#161B22" stroke="#21262D" stroke-width="0.9" /><rect x="110.0" y="166.0" width="14" height="14" fill="#161B22" stroke="#21262D" stroke-width="0.9" /><rect x="110.0" y="184.0" width="14" height="14" fill="#161B22" stroke="#21262D" stroke-width="0.9" /><rect x="110.0" y="202.0" width="14" height="14" fill="#161B22" stroke="#21262D" stroke-width="0.9" /><rect x="110.0" y="220.0" width="14" height="14" fill="#161B22" stroke="#21262D" stroke-width="0.9" /><rect x="128.0" y="112.0" width="14" height="14" fill="#161B22" stroke="#21262D" stroke-width="0.9" /><rect x="128.0" y="130.0" width="14" height="14" fill="#161B22" stroke="#21262D" stroke-width="0.9" /><rect x="128.0" y="148.0" width="14" height="14" fill="#161B22" stroke="#21262D" stroke-width="0.9" /><rect x="128.0" y="166.0" width="14" height="14" fill="#161B22" stroke="#21262D" stroke-width="0.9" /><rect x="128.0" y="184.0" width="14" height="14" fill="#161B22" stroke="#21262D" stroke-width="0.9" /><rect x="128.0" y="202.0" width="14" height="14" fill="#161B22" stroke="#21262D" stroke-width="0.9" /><rect x="128.0" y="220.0" width="14" height="14" fill="#161B22" stroke="#21262D" stroke-width="0.9" /><rect x="146.0" y="112.0" width="14" height="14" fill="#161B22" stroke="#21262D" stroke-width="0.9" /><rect x="146.0" y="130.0" width="14" height="14" fill="#161B22" stroke="#21262D" stroke-width="0.9" /><rect x="146.0" y="148.0" width="14" height="14" fill="#161B22" stroke="#21262D" stroke-width="0.9" /><rect x="146.0" y="166.0" width="14" height="14" fill="#161B22" stroke="#21262D" stroke-width="0.9" /><rect x="146.0" y="184.0" width="14" height="14" fill="#161B22" stroke="#21262D" stroke-width="0.9" /><rect x="146.0" y="202.0" width="14" height="14" fill="#161B22" stroke="#21262D" stroke-width="0.9" /><rect x="146.0" y="220.0" width="14" height="14" fill="#161B22" stroke="#21262D" stroke-width="0.9" /><rect x="164.0" y="112.0" width="14" height="14" fill="#161B22" stroke="#21262D" stroke-width="0.9" /><rect x="164.0" y="130.0" width="14" height="14" fill="#161B22" stroke="#21262D" stroke-width="0.9" /><rect x="164.0" y="148.0" width="14" height="14" fill="#161B22" stroke="#21262D" stroke-width="0.9" /><rect x="164.0" y="166.0" width="14" height="14" fill="#161B22" stroke="#21262D" stroke-width="0.9" /><rect x="164.0" y="184.0" width="14" height="14" fill="#161B22" stroke="#21262D" stroke-width="0.9" /><rect x="164.0" y="202.0" width="14" height="14" fill="#161B22" stroke="#21262D" stroke-width="0.9" /><rect x="164.0" y="220.0" width="14" height="14" fill="#161B22" stroke="#21262D" stroke-width="0.9" /><rect x="182.0" y="112.0" width="14" height="14" fill="#161B22" stroke="#21262D" stroke-width="0.9" /><rect x="182.0" y="130.0" width="14" height="14" fill="#161B22" stroke="#21262D" stroke-width="0.9" /><rect x="182.0" y="148.0" width="14" height="14" fill="#161B22" stroke="#21262D" stroke-width="0.9" /><rect x="182.0" y="166.0" width="14" height="14" fill="#161B22" stroke="#21262D" stroke-width="0.9" /><rect x="182.0" y="184.0" width="14" height="14" fill="#161B22" stroke="#21262D" stroke-width="0.9" /><rect x="182.0" y="202.0" width="14" height="14" fill="#161B22" stroke="#21262D" stroke-width="0.9" /><rect x="182.0" y="220.0" width="14" height="14" fill="#161B22" stroke="#21262D" stroke-width="0.9" /><rect x="200.0" y="112.0" width="14" height="14" fill="#161B22" stroke="#21262D" stroke-width="0.9" /><rect x="200.0" y="130.0" width="14" height="14" fill="#161B22" stroke="#21262D" stroke-width="0.9" /><rect x="200.0" y="148.0" width="14" height="14" fill="#161B22" stroke="#21262D" stroke-width="0.9" /><rect x="200.0" y="166.0" width="14" height="14" fill="#161B22" stroke="#21262D" stroke-width="0.9" /><rect x="200.0" y="184.0" width="14" height="14" fill="#161B22" stroke="#21262D" stroke-width="0.9" /><rect x="200.0" y="202.0" width="14" height="14" fill="#161B22" stroke="#21262D" stroke-width="0.9" /><rect x="200.0" y="220.0" width="14" height="14" fill="#161B22" stroke="#21262D" stroke-width="0.9" /></g><g class="food-marker snake-animated" transform="translate(45.0 119.0)"><animate attributeName="opacity" values="1;1;0;0;1" keyTimes="0;0.01389;0.02589;0.999;1" dur="16.0s" repeatCount="indefinite" /><rect x="-4.00" y="-4.00" width="8.00" height="8.00" fill="#FF7B72" stroke="#F85149" stroke-width="0.7" /></g><g class="food-marker snake-animated" transform="translate(45.0 173.0)"><animate attributeName="opacity" values="1;1;0;0;1" keyTimes="0;0.05556;0.06756;0.999;1" dur="16.0s" repeatCount="indefinite" /><rect x="-4.00" y="-4.00" width="8.00" height="8.00" fill="#FF7B72" stroke="#F85149" stroke-width="0.7" /></g><g class="food-marker snake-animated" transform="translate(45.0 227.0)"><animate attributeName="opacity" values="1;1;0;0;1" keyTimes="0;0.81944;0.83144;0.999;1" dur="16.0s" repeatCount="indefinite" /><rect x="-4.00" y="-4.00" width="8.00" height="8.00" fill="#FF7B72" stroke="#F85149" stroke-width="0.7" /></g><g class="food-marker snake-animated" transform="translate(63.0 155.0)"><animate attributeName="opacity" values="1;1;0;0;1" keyTimes="0;0.08333;0.09533;0.999;1" dur="16.0s" repeatCount="indefinite" /><rect x="-4.00" y="-4.00" width="8.00" height="8.00" fill="#FF7B72" stroke="#F85149" stroke-width="0.7" /></g><g class="food-marker snake-animated" transform="translate(63.0 209.0)"><animate attributeName="opacity" values="1;1;0;0;1" keyTimes="0;0.84722;0.85922;0.999;1" dur="16.0s" repeatCount="indefinite" /><rect x="-4.00" y="-4.00" width="8.00" height="8.00" fill="#FF7B72" stroke="#F85149" stroke-width="0.7" /></g><g class="food-marker snake-animated" transform="translate(81.0 137.0)"><animate attributeName="opacity" values="1;1;0;0;1" keyTimes="0;0.11111;0.12311;0.999;1" dur="16.0s" repeatCount="indefinite" /><rect x="-4.00" y="-4.00" width="8.00" height="8.00" fill="#FF7B72" stroke="#F85149" stroke-width="0.7" /></g><g class="food-marker snake-animated" transform="translate(81.0 191.0)"><animate attributeName="opacity" values="1;1;0;0;1" keyTimes="0;0.87500;0.88700;0.999;1" dur="16.0s" repeatCount="indefinite" /><rect x="-4.00" y="-4.00" width="8.00" height="8.00" fill="#FF7B72" stroke="#F85149" stroke-width="0.7" /></g><g class="food-marker snake-animated" transform="translate(99.0 119.0)"><animate attributeName="opacity" values="1;1;0;0;1" keyTimes="0;0.13889;0.15089;0.999;1" dur="16.0s" repeatCount="indefinite" /><rect x="-4.00" y="-4.00" width="8.00" height="8.00" fill="#FF7B72" stroke="#F85149" stroke-width="0.7" /></g><g class="food-marker snake-animated" transform="translate(99.0 173.0)"><animate attributeName="opacity" values="1;1;0;0;1" keyTimes="0;0.20833;0.22033;0.999;1" dur="16.0s" repeatCount="indefinite" /><rect x="-4.00" y="-4.00" width="8.00" height="8.00" fill="#FF7B72" stroke="#F85149" stroke-width="0.7" /></g><g class="food-marker snake-animated" transform="translate(99.0 227.0)"><animate attributeName="opacity" values="1;1;0;0;1" keyTimes="0;0.25000;0.26200;0.999;1" dur="16.0s" repeatCount="indefinite" /><rect x="-4.00" y="-4.00" width="8.00" height="8.00" fill="#FF7B72" stroke="#F85149" stroke-width="0.7" /></g><g class="food-marker snake-animated" transform="translate(117.0 155.0)"><animate attributeName="opacity" values="1;1;0;0;1" keyTimes="0;0.93056;0.94256;0.999;1" dur="16.0s" repeatCount="indefinite" /><rect x="-4.00" y="-4.00" width="8.00" height="8.00" fill="#FF7B72" stroke="#F85149" stroke-width="0.7" /></g><g class="food-marker snake-animated" transform="translate(117.0 209.0)"><animate attributeName="opacity" values="1;1;0;0;1" keyTimes="0;0.27778;0.28978;0.999;1" dur="16.0s" repeatCount="indefinite" /><rect x="-4.00" y="-4.00" width="8.00" height="8.00" fill="#FF7B72" stroke="#F85149" stroke-width="0.7" /></g><g class="food-marker snake-animated" transform="translate(135.0 137.0)"><animate attributeName="opacity" values="1;1;0;0;1" keyTimes="0;0.95833;0.97033;0.999;1" dur="16.0s" repeatCount="indefinite" /><rect x="-4.00" y="-4.00" width="8.00" height="8.00" fill="#FF7B72" stroke="#F85149" stroke-width="0.7" /></g><g class="food-marker snake-animated" transform="translate(135.0 191.0)"><animate attributeName="opacity" values="1;1;0;0;1" keyTimes="0;0.30556;0.31756;0.999;1" dur="16.0s" repeatCount="indefinite" /><rect x="-4.00" y="-4.00" width="8.00" height="8.00" fill="#FF7B72" stroke="#F85149" stroke-width="0.7" /></g><g class="food-marker snake-animated" transform="translate(153.0 119.0)"><animate attributeName="opacity" values="1;1;0;0;1" keyTimes="0;0.98611;0.99811;0.999;1" dur="16.0s" repeatCount="indefinite" /><rect x="-4.00" y="-4.00" width="8.00" height="8.00" fill="#FF7B72" stroke="#F85149" stroke-width="0.7" /></g><g class="food-marker snake-animated" transform="translate(153.0 173.0)"><animate attributeName="opacity" values="1;1;0;0;1" keyTimes="0;0.33333;0.34533;0.999;1" dur="16.0s" repeatCount="indefinite" /><rect x="-4.00" y="-4.00" width="8.00" height="8.00" fill="#FF7B72" stroke="#F85149" stroke-width="0.7" /></g><g class="food-marker snake-animated" transform="translate(153.0 227.0)"><animate attributeName="opacity" values="1;1;0;0;1" keyTimes="0;0.56944;0.58144;0.999;1" dur="16.0s" repeatCount="indefinite" /><rect x="-4.00" y="-4.00" width="8.00" height="8.00" fill="#FF7B72" stroke="#F85149" stroke-width="0.7" /></g><g class="food-marker snake-animated" transform="translate(171.0 155.0)"><animate attributeName="opacity" values="1;1;0;0;1" keyTimes="0;0.36111;0.37311;0.999;1" dur="16.0s" repeatCount="indefinite" /><rect x="-4.00" y="-4.00" width="8.00" height="8.00" fill="#FF7B72" stroke="#F85149" stroke-width="0.7" /></g><g class="food-marker snake-animated" transform="translate(171.0 209.0)"><animate attributeName="opacity" values="1;1;0;0;1" keyTimes="0;0.59722;0.60922;0.999;1" dur="16.0s" repeatCount="indefinite" /><rect x="-4.00" y="-4.00" width="8.00" height="8.00" fill="#FF7B72" stroke="#F85149" stroke-width="0.7" /></g><g class="food-marker snake-animated" transform="translate(189.0 137.0)"><animate attributeName="opacity" values="1;1;0;0;1" keyTimes="0;0.38889;0.40089;0.999;1" dur="16.0s" repeatCount="indefinite" /><rect x="-4.00" y="-4.00" width="8.00" height="8.00" fill="#FF7B72" stroke="#F85149" stroke-width="0.7" /></g><g class="food-marker snake-animated" transform="translate(189.0 191.0)"><animate attributeName="opacity" values="1;1;0;0;1" keyTimes="0;0.62500;0.63700;0.999;1" dur="16.0s" repeatCount="indefinite" /><rect x="-4.00" y="-4.00" width="8.00" height="8.00" fill="#FF7B72" stroke="#F85149" stroke-width="0.7" /></g><g class="food-marker snake-animated" transform="translate(207.0 119.0)"><animate attributeName="opacity" values="1;1;0;0;1" keyTimes="0;0.41667;0.42867;0.999;1" dur="16.0s" repeatCount="indefinite" /><rect x="-4.00" y="-4.00" width="8.00" height="8.00" fill="#FF7B72" stroke="#F85149" stroke-width="0.7" /></g><g class="food-marker snake-animated" transform="translate(207.0 173.0)"><animate attributeName="opacity" values="1;1;0;0;1" keyTimes="0;0.48611;0.49811;0.999;1" dur="16.0s" repeatCount="indefinite" /><rect x="-4.00" y="-4.00" width="8.00" height="8.00" fill="#FF7B72" stroke="#F85149" stroke-width="0.7" /></g><g class="food-marker snake-animated" transform="translate(207.0 227.0)"><animate attributeName="opacity" values="1;1;0;0;1" keyTimes="0;0.52778;0.53978;0.999;1" dur="16.0s" repeatCount="indefinite" /><rect x="-4.00" y="-4.00" width="8.00" height="8.00" fill="#FF7B72" stroke="#F85149" stroke-width="0.7" /></g><g class="snake-animated"><animate attributeName="opacity" values="1.0;1.0;0.0;0.0;1.0;1.0;0.0;0.0;1.0;1.0" keyTimes="0.00000;0.13889;0.15689;0.23200;0.25000;0.41667;0.43467;0.50978;0.52778;1.00000" dur="16.0s" repeatCount="indefinite" /><path class="snake-body-window snake-animated" d="M 45.00 101.00 L 45.00 173.00 L 63.00 173.00 L 63.00 137.00 L 99.00 137.00 L 99.00 101.00 L 99.00 227.00 L 117.00 227.00 L 117.00 191.00 L 153.00 191.00 L 153.00 155.00 L 189.00 155.00 L 189.00 119.00 L 207.00 119.00 L 207.00 101.00 L 207.00 227.00 L 153.00 227.00 L 171.00 227.00 L 171.00 191.00 L 207.00 191.00 L 207.00 173.00 L 207.00 191.00 L 117.00 191.00 L 117.00 227.00 L 45.00 227.00 L 63.00 227.00 L 63.00 191.00 L 99.00 191.00 L 99.00 155.00 L 135.00 155.00 L 135.00 119.00 L 153.00 119.00 L 153.00 101.00" pathLength="1000" fill="none" stroke="url(#dark-snake-body)" stroke-width="14.00" clip-path="url(#dark-snake-body-clip)" stroke-linecap="square" stroke-linejoin="miter" stroke-dasharray="69.44 1000.00" stroke-dashoffset="1000.00" filter="url(#dark-snake-shadow)"><animate attributeName="stroke-dashoffset" values="1000.00;0" dur="16.0s" repeatCount="indefinite" /><animate attributeName="stroke-dasharray" values="69.44 1000.00;69.44 1000.00;83.33 1000.00;83.33 1000.00;97.22 1000.00;97.22 1000.00;111.11 1000.00;111.11 1000.00;125.00 1000.00;125.00 1000.00;138.89 1000.00;138.89 1000.00;152.78 1000.00;152.78 1000.00;166.67 1000.00;166.67 1000.00;180.56 1000.00;180.56 1000.00;194.44 1000.00;194.44 1000.00;208.33 1000.00;208.33 1000.00;222.22 1000.00;222.22 1000.00;236.11 1000.00;291.67 1000.00;305.56 1000.00;236.11 1000.00;250.00 1000.00;250.00 1000.00;263.89 1000.00;263.89 1000.00;277.78 1000.00;277.78 1000.00;291.67 1000.00;305.56 1000.00;319.44 1000.00;319.44 1000.00;333.33 1000.00;333.33 1000.00;69.44 1000.00" keyTimes="0.00000;0.01389;0.03389;0.05556;0.07556;0.08333;0.10333;0.11111;0.13111;0.13889;0.15889;0.25000;0.27000;0.27778;0.29778;0.30556;0.32556;0.33333;0.35333;0.36111;0.38111;0.38889;0.40889;0.41667;0.43667;0.48611;0.50611;0.52778;0.54778;0.56944;0.58944;0.59722;0.61722;0.62500;0.64500;0.81944;0.83944;0.84722;0.86722;0.99900;1.00000" dur="16.0s" repeatCount="indefinite" /></path></g><g class="snake-head snake-animated"><animate attributeName="opacity" values="1.0;1.0;0.0;0.0;1.0;1.0;0.0;0.0;1.0;1.0" keyTimes="0.00000;0.13889;0.15689;0.23200;0.25000;0.41667;0.43467;0.50978;0.52778;1.00000" dur="16.0s" repeatCount="indefinite" /><g filter="url(#dark-snake-shadow)"><g><rect x="-7.00" y="-7.00" width="14.00" height="14.00" fill="url(#dark-snake-body)" stroke="#238636" stroke-width="1.0" /><rect x="-7.00" y="-7.00" width="14.00" height="14.00" fill="url(#dark-snake-head)" stroke="#238636" stroke-width="1.0" /><rect x="1.0" y="-4.0" width="2.5" height="2.5" fill="#F0F6FC" /><rect x="1.0" y="1.5" width="2.5" height="2.5" fill="#F0F6FC" /><animateMotion dur="16.0s" repeatCount="indefinite" rotate="auto"><mpath href="#dark-guide-path" /></animateMotion></g></g></g><g class="snake-static"><path d="M 45.00 101.00 L 45.00 173.00 L 63.00 173.00 L 63.00 137.00 L 99.00 137.00 L 99.00 101.00 L 99.00 227.00 L 117.00 227.00 L 117.00 191.00 L 153.00 191.00 L 153.00 155.00 L 189.00 155.00 L 189.00 119.00 L 207.00 119.00 L 207.00 101.00 L 207.00 227.00 L 153.00 227.00 L 171.00 227.00 L 171.00 191.00 L 207.00 191.00 L 207.00 173.00 L 207.00 191.00 L 117.00 191.00 L 117.00 227.00 L 45.00 227.00 L 63.00 227.00 L 63.00 191.00 L 99.00 191.00 L 99.00 155.00 L 135.00 155.00 L 135.00 119.00 L 153.00 119.00 L 153.00 101.00" pathLength="1000" fill="none" stroke="url(#dark-snake-body)" stroke-width="14.00" clip-path="url(#dark-snake-body-clip)" stroke-linecap="square" stroke-linejoin="miter" stroke-dasharray="333.33 1000.00" stroke-dashoffset="13.89" filter="url(#dark-snake-shadow)" /><g transform="translate(153.00 119.00) rotate(0.0)"><rect x="-7.00" y="-7.00" width="14.00" height="14.00" fill="url(#dark-snake-body)" stroke="#238636" stroke-width="1.0" /><rect x="-7.00" y="-7.00" width="14.00" height="14.00" fill="url(#dark-snake-head)" stroke="#238636" stroke-width="1.0" /><rect x="1.0" y="-4.0" width="2.5" height="2.5" fill="#F0F6FC" /><rect x="1.0" y="1.5" width="2.5" height="2.5" fill="#F0F6FC" /></g></g></g></svg>