<svg width="1280" height="320" viewBox="0 0 1280 320" fill="none" xmlns="http://www.w3.org/2000/svg" role="img" aria-labelledby="title desc">
  <title id="title">byteD-x GitHub 主页头图</title>
  <desc id="desc">面向国内开发者的终端风 GitHub Profile README 头图。</desc>
  <rect width="1280" height="320" rx="24" fill="#FAFAFA"/>
  <rect x="24" y="24" width="1232" height="272" rx="20" stroke="#E4E4E7" stroke-width="2"/>

  <g opacity="0.75">
    <path d="M104 24V296" stroke="#E4E4E7"/>
    <path d="M184 24V296" stroke="#E4E4E7"/>
    <path d="M264 24V296" stroke="#E4E4E7"/>
    <path d="M344 24V296" stroke="#E4E4E7"/>
    <path d="M424 24V296" stroke="#E4E4E7"/>
    <path d="M504 24V296" stroke="#E4E4E7"/>
    <path d="M584 24V296" stroke="#E4E4E7"/>
    <path d="M664 24V296" stroke="#E4E4E7"/>
    <path d="M744 24V296" stroke="#E4E4E7"/>
    <path d="M824 24V296" stroke="#E4E4E7"/>
    <path d="M904 24V296" stroke="#E4E4E7"/>
    <path d="M984 24V296" stroke="#E4E4E7"/>
    <path d="M1064 24V296" stroke="#E4E4E7"/>
    <path d="M1144 24V296" stroke="#E4E4E7"/>
    <path d="M1224 24V296" stroke="#E4E4E7"/>
    <path d="M24 72H1256" stroke="#E4E4E7"/>
    <path d="M24 120H1256" stroke="#E4E4E7"/>
    <path d="M24 168H1256" stroke="#E4E4E7"/>
    <path d="M24 216H1256" stroke="#E4E4E7"/>
    <path d="M24 264H1256" stroke="#E4E4E7"/>
  </g>

  <rect x="64" y="58" width="182" height="28" rx="14" fill="#EFF6FF" stroke="#BFDBFE"/>
  <text x="82" y="77" fill="#2563EB" font-family="'Consolas', 'Menlo', monospace" font-size="14" font-weight="700">PROFILE // AI SYSTEMS</text>

  <text x="64" y="148" fill="#09090B" font-family="'Space Mono', 'Consolas', monospace" font-size="64" font-weight="700">byteD-x</text>
  <text x="66" y="184" fill="#3F3F46" font-family="'Microsoft YaHei', 'Consolas', monospace" font-size="20">RAG | Agent 编排 | 多模态 AI | 性能优化</text>

  <text x="66" y="230" fill="#18181B" font-family="'Microsoft YaHei', 'Consolas', monospace" font-size="18">做能落地、能验证、能产生真实价值的 AI 系统。</text>

  <rect x="64" y="250" width="190" height="28" rx="14" fill="#18181B"/>
  <text x="84" y="269" fill="#FAFAFA" font-family="'Microsoft YaHei', 'Consolas', monospace" font-size="13" font-weight="700">生产级 AI 系统构建</text>

  <rect x="272" y="250" width="170" height="28" rx="14" fill="#2563EB"/>
  <text x="294" y="269" fill="#FAFAFA" font-family="'Microsoft YaHei', 'Consolas', monospace" font-size="13" font-weight="700">小步快跑，结果导向</text>

  <g>
    <rect x="764" y="56" width="436" height="206" rx="18" fill="#18181B"/>
    <circle cx="794" cy="82" r="6" fill="#FB7185"/>
    <circle cx="816" cy="82" r="6" fill="#FBBF24"/>
    <circle cx="838" cy="82" r="6" fill="#34D399"/>
    <text x="874" y="87" fill="#A1A1AA" font-family="'Consolas', 'Menlo', monospace" font-size="14">terminal://byteD-x</text>

    <text x="792" y="126" fill="#60A5FA" font-family="'Consolas', 'Menlo', monospace" font-size="18">&gt; status</text>
    <text x="792" y="152" fill="#FAFAFA" font-family="'Microsoft YaHei', 'Consolas', monospace" font-size="17">状态：在线</text>
    <text x="792" y="178" fill="#FAFAFA" font-family="'Microsoft YaHei', 'Consolas', monospace" font-size="17">方向：RAG / Agent / 检索增强</text>
    <text x="792" y="204" fill="#FAFAFA" font-family="'Microsoft YaHei', 'Consolas', monospace" font-size="17">模式：构建 / 验证 / 持续优化</text>
    <text x="792" y="230" fill="#A1A1AA" font-family="'Microsoft YaHei', 'Consolas', monospace" font-size="15">支持人工协同与转接</text>

    <path d="M1104 124L1146 166L1104 208" stroke="#2563EB" stroke-width="8" stroke-linecap="round" stroke-linejoin="round"/>
    <path d="M1168 124L1126 166L1168 208" stroke="#FAFAFA" stroke-width="8" stroke-linecap="round" stroke-linejoin="round"/>
  </g>
</svg>
